<svg xmlns="http://www.w3.org/2000/svg" width="16" height="20.007" viewBox="0 0 16 20.007">
  <path id="file_" data-name="file " d="M1990,6440.5a1,1,0,0,1-1-1v-17.97a1,1,0,0,1,1-1h7.5v-.029h2.5v.118l.111-.112,4.639,4.639-.354.354h.6v14a1,1,0,0,1-1,1Zm1-2h12v-11h-4a1,1,0,0,1-1-1v-4h-7Zm13-11Zm-4-2h2.389l-2.389-2.389Zm-6.249,9a.75.75,0,0,1,0-1.5h6.5a.75.75,0,0,1,0,1.5Zm0-3.5a.75.75,0,0,1,0-1.5h6.5a.75.75,0,0,1,0,1.5Zm0-3.5a.75.75,0,0,1,0-1.5h1.5a.75.75,0,0,1,0,1.5Zm8.483-7,.032,0h.7c.162,0,.3,0,.423,0h-1.152Z" transform="translate(-1989 -6420.494)" fill="#057bba"/>
</svg>
