<svg xmlns="http://www.w3.org/2000/svg" width="23.001" height="25" viewBox="0 0 23.001 25">
  <path id="notes" d="M49.5,4870h-12a1.5,1.5,0,0,1-1.5-1.5v-.5h7a3,3,0,0,0,3-3v-15h3.5a1.5,1.5,0,0,1,1.5,1.5v17A1.5,1.5,0,0,1,49.5,4870Zm-8-5h-12a1.5,1.5,0,0,1-1.5-1.5v-17a1.5,1.5,0,0,1,1.5-1.5h12a1.5,1.5,0,0,1,1.5,1.5v17A1.5,1.5,0,0,1,41.5,4865Zm-9.5-8a1,1,0,1,0,0,2h4a1,1,0,1,0,0-2Zm0-4a1,1,0,1,0,0,2h7a1,1,0,1,0,0-2Zm0-4a1,1,0,1,0,0,2h7a1,1,0,1,0,0-2Z" transform="translate(-28 -4845.001)" fill="#b3b3b3"/>
</svg>
